<svg width="1920" height="1709" fill="none" xmlns="http://www.w3.org/2000/svg"><circle cx="1469" cy="760" r="299.5" stroke="#F9F9F9" stroke-opacity=".3"/><circle cx="1469" cy="760" r="249.5" stroke="#F9F9F9" stroke-opacity=".3"/><circle cx="1469" cy="760" r="199.5" stroke="#F9F9F9" stroke-opacity=".3"/><circle cx="1469" cy="760" r="149.5" stroke="#F9F9F9" stroke-opacity=".3"/><circle cx="1469" cy="760" r="49.5" stroke="#F9F9F9" stroke-opacity=".3"/><circle cx="1469" cy="760" r="99.5" stroke="#F9F9F9" stroke-opacity=".3"/><circle cx="491" cy="400" r="399" stroke="#C05640" stroke-opacity=".7" stroke-width="2"/><circle cx="491" cy="400" r="349" stroke="#C05640" stroke-opacity=".7" stroke-width="2"/><circle cx="497" cy="400" r="299" stroke="#C05640" stroke-opacity=".7" stroke-width="2"/><circle cx="501" cy="400" r="249" stroke="#C05640" stroke-opacity=".7" stroke-width="2"/><circle cx="497" cy="400" r="199" stroke="#C05640" stroke-opacity=".7" stroke-width="2"/><circle cx="501" cy="400" r="149" stroke="#C05640" stroke-opacity=".7" stroke-width="2"/><circle cx="501" cy="400" r="99" stroke="#C05640" stroke-opacity=".7" stroke-width="2"/><circle cx="501" cy="400" r="49" stroke="#C05640" stroke-opacity=".7" stroke-width="2"/><path d="M146.656 1066.39l393.163 105.34c14.128 3.79 18.86 21.45 8.517 31.79l-287.815 287.82c-10.342 10.34-28.002 5.61-31.787-8.52l-105.348-393.16c-3.786-14.13 9.142-27.06 23.27-23.27z" stroke="#F9F9F9" stroke-opacity=".3" stroke-width="2"/><path d="M180.301 1101.59l309.511 82.93c14.128 3.79 18.86 21.45 8.517 31.79l-226.577 226.58c-10.343 10.34-28.003 5.61-31.788-8.52l-82.933-309.51c-3.786-14.13 9.142-27.06 23.27-23.27z" stroke="#F9F9F9" stroke-opacity=".3" stroke-width="2"/><path d="M217.946 1137.23l225.859 60.52c14.128 3.79 18.86 21.45 8.517 31.79l-165.34 165.34c-10.342 10.34-28.002 5.61-31.788-8.52l-60.519-225.86c-3.785-14.13 9.143-27.05 23.271-23.27z" stroke="#F9F9F9" stroke-opacity=".3" stroke-width="2"/><path d="M245.59 1171.88l142.208 38.1c14.128 3.79 18.86 21.45 8.517 31.79l-104.103 104.1c-10.342 10.34-28.002 5.61-31.788-8.52l-38.104-142.2c-3.786-14.13 9.142-27.06 23.27-23.27z" stroke="#F9F9F9" stroke-opacity=".3" stroke-width="2"/><path d="M281.235 1207.52l58.556 15.69c14.128 3.79 18.86 21.45 8.517 31.79l-42.866 42.86c-10.342 10.35-28.002 5.61-31.787-8.51l-15.69-58.56c-3.786-14.13 9.142-27.05 23.27-23.27z" stroke="#F9F9F9" stroke-opacity=".3" stroke-width="2"/><path stroke="#C05640" stroke-opacity=".7" stroke-width="3" d="M864.049 1319.55l387.113-223.5 223.5 387.113-387.113 223.5z"/><path stroke="#C05640" stroke-opacity=".7" stroke-width="3" d="M932.049 1337.55l300.51-173.5 173.5 300.51-300.51 173.5z"/><path stroke="#C05640" stroke-opacity=".7" stroke-width="3" d="M1004.05 1355.55l213.908-123.5 123.5 213.908-213.908 123.5z"/><path stroke="#C05640" stroke-opacity=".7" stroke-width="3" d="M1073.05 1374.55l127.306-73.5 73.5 127.306-127.306 73.5z"/><path stroke="#C05640" stroke-opacity=".7" stroke-width="3" d="M1141.05 1392.55l40.703-23.5 23.5 40.703-40.703 23.5z"/></svg>