<svg width="250" height="250" fill="none" xmlns="http://www.w3.org/2000/svg"><path fill-rule="evenodd" clip-rule="evenodd" d="M201.005 25.279c21.654 16.245 37.886 39.268 45.51 65.892l.777 2.72-34.577-15.19-.218-.398c-8.588-15.665-21.309-28.774-36.704-37.87-14.868-8.786-32.238-13.832-50.794-13.832-18.558 0-35.928 5.046-50.796 13.833C58.81 49.531 46.088 62.64 37.5 78.304l-.22.398c-11.517 5.08-23.05 10.128-34.575 15.19l.779-2.72c7.624-26.627 23.856-49.648 45.51-65.893C70.142 9.409 96.468 0 124.998 0c28.53 0 54.855 9.41 76.006 25.279z" fill="#F9F9F9"/><path fill-rule="evenodd" clip-rule="evenodd" d="M125 250c69.035 0 125-55.666 125-124.335 0-6.109-.451-12.113-1.307-17.987l-27.349-12.015-84.61-37.17A29.224 29.224 0 00125 56.043c-4.178 0-8.148.879-11.738 2.456L28.656 95.665 1.307 107.678A124.54 124.54 0 000 125.665C0 194.334 55.964 250 125 250zm59.192-82.337c0 18.628-26.501 33.728-59.192 33.728-32.69 0-59.192-15.1-59.192-33.728v-23.297l47.454 20.845A29.13 29.13 0 00125 167.665c4.031 0 8.044-.827 11.734-2.449l47.458-20.849v23.296zm41.196-52.449c.359 3.435.541 6.922.541 10.451 0 55.446-45.188 100.393-100.929 100.393-55.743 0-100.93-44.947-100.93-100.393 0-3.529.183-7.016.542-10.452l88.65 38.942A29.112 29.112 0 00125 156.609a29.19 29.19 0 0011.734-2.449l45.6-20.032-52.851-27.166v-.001c-2.233-.956-3.797-3.16-3.797-5.732 0-3.442 2.806-6.234 6.267-6.234 1.199 0 2.319.335 3.272.916l61.796 31.765 28.367-12.462z" fill="#F9F9F9"/></svg>