<svg width="1920" height="1709" fill="none" xmlns="http://www.w3.org/2000/svg"><circle cx="1469" cy="760" r="300" fill="#F4EBDC" fill-opacity=".05"/><circle cx="1469" cy="760" r="299.5" stroke="#2B4A52" stroke-opacity=".3"/><circle cx="1469" cy="760" r="250" fill="#F4EBDC" fill-opacity=".05"/><circle cx="1469" cy="760" r="249.5" stroke="#2B4A52" stroke-opacity=".3"/><circle cx="1469" cy="760" r="200" fill="#F4EBDC" fill-opacity=".05"/><circle cx="1469" cy="760" r="199.5" stroke="#2B4A52" stroke-opacity=".3"/><circle cx="1469" cy="760" r="150" fill="#F4EBDC" fill-opacity=".05"/><circle cx="1469" cy="760" r="149.5" stroke="#2B4A52" stroke-opacity=".3"/><circle cx="1469" cy="760" r="50" fill="#F4EBDC" fill-opacity=".05"/><circle cx="1469" cy="760" r="49.5" stroke="#2B4A52" stroke-opacity=".3"/><circle cx="1469" cy="760" r="100" fill="#F4EBDC" fill-opacity=".05"/><circle cx="1469" cy="760" r="99.5" stroke="#2B4A52" stroke-opacity=".3"/><circle cx="491" cy="400" r="400" fill="#F4EBDC" fill-opacity=".05"/><circle cx="491" cy="400" r="399" stroke="#C05640" stroke-opacity=".3" stroke-width="2"/><circle cx="491" cy="400" r="350" fill="#F4EBDC" fill-opacity=".05"/><circle cx="491" cy="400" r="349" stroke="#C05640" stroke-opacity=".3" stroke-width="2"/><circle cx="497" cy="400" r="300" fill="#F4EBDC" fill-opacity=".05"/><circle cx="497" cy="400" r="299" stroke="#C05640" stroke-opacity=".3" stroke-width="2"/><circle cx="501" cy="400" r="250" fill="#F4EBDC" fill-opacity=".05"/><circle cx="501" cy="400" r="249" stroke="#C05640" stroke-opacity=".3" stroke-width="2"/><circle cx="497" cy="400" r="200" fill="#F4EBDC" fill-opacity=".05"/><circle cx="497" cy="400" r="199" stroke="#C05640" stroke-opacity=".3" stroke-width="2"/><circle cx="501" cy="400" r="150" fill="#F4EBDC" fill-opacity=".05"/><circle cx="501" cy="400" r="149" stroke="#C05640" stroke-opacity=".3" stroke-width="2"/><circle cx="501" cy="400" r="100" fill="#F4EBDC" fill-opacity=".05"/><circle cx="501" cy="400" r="99" stroke="#C05640" stroke-opacity=".3" stroke-width="2"/><circle cx="501" cy="400" r="50" fill="#F4EBDC" fill-opacity=".05"/><circle cx="501" cy="400" r="49" stroke="#C05640" stroke-opacity=".3" stroke-width="2"/><path d="M122.42 1089.92c-3.985-14.88 9.624-28.48 24.495-24.5l393.163 105.35c14.871 3.98 19.852 22.57 8.965 33.46l-287.815 287.81c-10.886 10.89-29.475 5.91-33.46-8.96L122.42 1089.92z" fill="#F4EBDC" fill-opacity=".05"/><path d="M146.656 1066.39l393.163 105.34c14.128 3.79 18.86 21.45 8.517 31.79l-287.815 287.82c-10.342 10.34-28.002 5.61-31.787-8.52l-105.348-393.16c-3.786-14.13 9.142-27.06 23.27-23.27z" stroke="url(#paint0_linear_2002_295)" stroke-opacity=".3" stroke-width="2"/><path d="M156.065 1125.12c-3.985-14.87 9.623-28.48 24.495-24.5l309.511 82.93c14.871 3.99 19.852 22.58 8.965 33.47l-226.577 226.57c-10.887 10.89-29.476 5.91-33.461-8.96l-82.933-309.51z" fill="#F4EBDC" fill-opacity=".05"/><path d="M180.301 1101.59l309.511 82.93c14.128 3.79 18.86 21.45 8.517 31.79l-226.577 226.58c-10.343 10.34-28.003 5.61-31.788-8.52l-82.933-309.51c-3.786-14.13 9.142-27.06 23.27-23.27z" stroke="url(#paint1_linear_2002_295)" stroke-opacity=".3" stroke-width="2"/><path d="M193.709 1160.76c-3.984-14.87 9.624-28.48 24.495-24.49l225.86 60.51c14.871 3.99 19.852 22.58 8.965 33.47l-165.34 165.34c-10.887 10.88-29.476 5.9-33.461-8.97l-60.519-225.86z" fill="#F4EBDC" fill-opacity=".05"/><path d="M217.946 1137.23l225.859 60.52c14.128 3.79 18.86 21.45 8.517 31.79l-165.34 165.34c-10.342 10.34-28.002 5.61-31.788-8.52l-60.519-225.86c-3.785-14.13 9.143-27.05 23.271-23.27z" stroke="url(#paint2_linear_2002_295)" stroke-opacity=".3" stroke-width="2"/><path d="M221.354 1195.41c-3.985-14.88 9.624-28.48 24.495-24.5l142.208 38.1c14.871 3.99 19.852 22.58 8.966 33.47l-104.104 104.1c-10.886 10.89-29.476 5.9-33.46-8.97l-38.105-142.2z" fill="#F4EBDC" fill-opacity=".05"/><path d="M245.59 1171.88l142.208 38.1c14.128 3.79 18.86 21.45 8.517 31.79l-104.103 104.1c-10.342 10.34-28.002 5.61-31.788-8.52l-38.104-142.2c-3.786-14.13 9.142-27.06 23.27-23.27z" stroke="url(#paint3_linear_2002_295)" stroke-opacity=".3" stroke-width="2"/><path d="M256.999 1231.05c-3.985-14.87 9.623-28.48 24.495-24.5l58.556 15.69c14.871 3.99 19.852 22.58 8.966 33.47l-42.867 42.86c-10.886 10.89-29.475 5.91-33.46-8.96l-15.69-58.56z" fill="#F4EBDC" fill-opacity=".05"/><path d="M281.235 1207.52l58.556 15.69c14.128 3.79 18.86 21.45 8.517 31.79l-42.866 42.86c-10.342 10.35-28.002 5.61-31.787-8.51l-15.69-58.56c-3.786-14.13 9.142-27.05 23.27-23.27z" stroke="url(#paint4_linear_2002_295)" stroke-opacity=".3" stroke-width="2"/><path fill="#F4EBDC" fill-opacity=".05" d="M862 1319l389.711-225 225 389.711-389.711 225z"/><path stroke="#C05640" stroke-opacity=".3" stroke-width="3" d="M864.049 1319.55l387.113-223.5 223.5 387.113-387.113 223.5z"/><path fill="#F4EBDC" fill-opacity=".05" d="M930 1337l303.109-175 175 303.109-303.109 175z"/><path stroke="#C05640" stroke-opacity=".3" stroke-width="3" d="M932.049 1337.55l300.51-173.5 173.5 300.51-300.51 173.5z"/><path fill="#F4EBDC" fill-opacity=".05" d="M1002 1355l216.506-125 125 216.506-216.506 125z"/><path stroke="#C05640" stroke-opacity=".3" stroke-width="3" d="M1004.05 1355.55l213.908-123.5 123.5 213.908-213.908 123.5z"/><path fill="#F4EBDC" fill-opacity=".05" d="M1071 1374l129.904-75 75 129.904-129.904 75z"/><path stroke="#C05640" stroke-opacity=".3" stroke-width="3" d="M1073.05 1374.55l127.306-73.5 73.5 127.306-127.306 73.5z"/><path fill="#F4EBDC" fill-opacity=".05" d="M1139 1392l43.301-25 25 43.301-43.301 25z"/><path stroke="#C05640" stroke-opacity=".3" stroke-width="3" d="M1141.05 1392.55l40.703-23.5 23.5 40.703-40.703 23.5z"/><path fill="#D9D9D9" d="M1274 994h1v16h-1z"/><defs><linearGradient id="paint0_linear_2002_295" x1="113.454" y1="1056.45" x2="502.363" y2="1445.36" gradientUnits="userSpaceOnUse"><stop offset=".75" stop-color="#2B4A52"/><stop offset="1" stop-color="#2B4A52" stop-opacity="0"/></linearGradient><linearGradient id="paint1_linear_2002_295" x1="147.099" y1="1091.66" x2="465.297" y2="1409.85" gradientUnits="userSpaceOnUse"><stop offset=".75" stop-color="#2B4A52"/><stop offset="1" stop-color="#2B4A52" stop-opacity="0"/></linearGradient><linearGradient id="paint2_linear_2002_295" x1="184.744" y1="1127.3" x2="432.231" y2="1374.79" gradientUnits="userSpaceOnUse"><stop offset=".75" stop-color="#2B4A52"/><stop offset="1" stop-color="#2B4A52" stop-opacity="0"/></linearGradient><linearGradient id="paint3_linear_2002_295" x1="212.388" y1="1161.94" x2="389.165" y2="1338.72" gradientUnits="userSpaceOnUse"><stop offset=".75" stop-color="#2B4A52"/><stop offset="1" stop-color="#2B4A52" stop-opacity="0"/></linearGradient><linearGradient id="paint4_linear_2002_295" x1="248.033" y1="1197.59" x2="354.099" y2="1303.66" gradientUnits="userSpaceOnUse"><stop offset=".75" stop-color="#2B4A52"/><stop offset="1" stop-color="#2B4A52" stop-opacity="0"/></linearGradient></defs></svg>