<svg width="120" height="120" fill="none" xmlns="http://www.w3.org/2000/svg"><path d="M44.106.78c-1 .35-2.328 1.536-2.863 2.538-.186.35-.792 3.795-1.35 7.636-.56 3.841-1.048 7.007-1.095 7.03-.047.048-.861.466-1.815.955a60.688 60.688 0 00-3.515 2.001c-.978.63-1.863 1.142-1.979 1.142-.116 0-3.096-1.164-6.61-2.561-5.17-2.049-6.658-2.561-7.59-2.561-1.35 0-2.746.605-3.63 1.536-.35.372-3.237 5.215-6.426 10.732C1.155 39.728.9 40.31 1.341 42.148c.396 1.676 1.164 2.467 6.798 6.844 3.725 2.932 5.54 4.47 5.449 4.702-.07.164-.117 2.096-.117 4.26v3.935l-2.609 2.049c-6.635 5.19-8.473 6.728-8.869 7.45-.676 1.163-.908 2.444-.629 3.677.35 1.56 11.407 20.673 12.594 21.767 1.048 1 2.608 1.49 3.935 1.28.512-.07 3.329-1.094 6.239-2.258 2.91-1.164 5.75-2.305 6.332-2.538l1.048-.419 2.491 1.56c1.374.862 3.026 1.816 3.678 2.118.745.35 1.21.721 1.28 1.025.07.28.489 3.166.932 6.425.443 3.259.93 6.379 1.07 6.89.326 1.234 1.374 2.514 2.608 3.19.954.512 1.094.512 10.684.512h9.731l.721-.745c1.118-1.094 1.025-2.071-.373-4.237-1.979-3.073-3.584-6.96-4.423-10.732-.512-2.305-.721-8.66-.372-10.941.14-.956.489-2.655.768-3.772.419-1.7.443-2.142.186-2.724-.488-1.21-1.094-1.42-4.237-1.513-1.885-.07-3.539-.256-4.82-.582-8.192-2.07-14.64-8.775-16.502-17.133-.559-2.514-.488-7.192.163-9.753.536-2.259 2.073-5.704 3.306-7.497 2.817-4.12 7.59-7.496 12.572-8.962 2.467-.699 7.566-.885 10.243-.327 8.17 1.653 14.69 7.705 17.11 15.877.444 1.536.63 2.864.769 5.285l.163 3.213.768.698c.907.815 1.35.815 4.795-.024 2.91-.674 6.682-.862 10.407-.488 3.445.349 3.91.232 4.678-1.187.349-.652.419-1.234.349-3.329l-.069-2.56 4.958-3.865c2.724-2.142 5.261-4.19 5.657-4.562 1.536-1.444 2.026-3.911 1.164-5.796-.721-1.583-11.453-19.997-11.965-20.532-.768-.862-2.281-1.467-3.631-1.467-1.001 0-2.304.443-7.566 2.561-3.492 1.397-6.472 2.561-6.611 2.561-.14 0-1.141-.56-2.189-1.258-1.07-.675-2.7-1.63-3.608-2.095-.931-.465-1.7-.954-1.7-1.07 0-1.07-1.931-13.362-2.234-14.131-.443-1.187-1.816-2.445-3.096-2.817-1.4-.445-24.05-.374-25.261.067z" fill="#2B4A52"/><path d="M88.43 65.17c-12.059 1.397-21.906 10.826-23.862 22.792-1.885 11.64 4.074 23.326 14.62 28.658 13.037 6.612 28.796 1.839 36.107-10.918 4.283-7.496 4.679-17.064.978-24.839-4.144-8.778-12.316-14.62-21.906-15.715-2.375-.256-3.446-.256-5.937.023zm-6.122 14.877c.35.14 2.56 2.165 4.889 4.493l4.26 4.237 4.237-4.237c2.35-2.328 4.562-4.354 4.936-4.493 1.815-.675 3.351.768 3.212 3.002-.047.396-1.374 1.91-4.4 4.959l-4.354 4.377 4.214 4.26c2.328 2.329 4.354 4.54 4.493 4.912.513 1.397-.768 3.166-2.281 3.166-.978 0-1.77-.629-5.867-4.75l-4.074-4.097-4.074 4.051c-2.234 2.212-4.33 4.214-4.656 4.424-.954.629-2.026.488-2.933-.419-.884-.884-1.025-1.816-.465-2.886.186-.349 2.189-2.469 4.423-4.703l4.097-4.074-4.307-4.307c-3.609-3.608-4.354-4.47-4.446-5.145-.186-1.095.419-2.235 1.373-2.653.908-.397.908-.397 1.723-.117z" fill="#2B4A52"/></svg>