<svg width="50" height="50" viewBox="0 0 50 50" fill="none" xmlns="http://www.w3.org/2000/svg">
<path fill-rule="evenodd" clip-rule="evenodd" d="M40.2011 5.05577C44.5319 8.30477 47.7782 12.9094 49.3029 18.2343L49.4584 18.7782L42.5429 15.7402L42.4994 15.6605C40.7817 12.5276 38.2375 9.90589 35.1586 8.08663C32.1851 6.32943 28.711 5.32022 24.9997 5.32022C21.2882 5.32022 17.8142 6.32943 14.8407 8.08686C11.7619 9.90612 9.21751 12.5278 7.50005 15.6608L7.45605 15.7404C5.15259 16.7564 2.8461 17.766 0.541016 18.7782L0.696767 18.2343C2.2217 12.909 5.46805 8.30477 9.79862 5.05577C14.0286 1.88179 19.2937 0 24.9997 0C30.7058 0 35.9708 1.88202 40.2011 5.05577Z" fill="#537173"/>
<path fill-rule="evenodd" clip-rule="evenodd" d="M25 50.0003C38.807 50.0003 50 38.867 50 25.1332C50 23.9114 49.9099 22.7107 49.7386 21.5359L44.2688 19.1328L27.3468 11.6988C26.6087 11.3746 25.8062 11.209 25 11.209C24.1644 11.209 23.3703 11.3845 22.6523 11.6999L5.73117 19.1333L0.261449 21.5359C0.0900984 22.7104 0 23.9114 0 25.1332C0 38.867 11.1928 50.0003 25 50.0003ZM36.8383 33.5329C36.8383 37.2585 31.5381 40.2785 25 40.2785C18.4619 40.2785 13.1617 37.2585 13.1617 33.5329V28.8734L22.6523 33.0424C23.3703 33.3576 24.1644 33.5331 25 33.5331C25.8062 33.5331 26.6087 33.3678 27.3468 33.0433L36.8383 28.8736V33.5329ZM45.0776 23.043C45.1493 23.7301 45.1859 24.4273 45.1859 25.1332C45.1859 36.2224 36.1483 45.2117 25 45.2117C13.8515 45.2117 4.81412 36.2224 4.81412 25.1332C4.81412 24.4273 4.85067 23.7301 4.92238 23.0427L22.6523 30.8311C23.3703 31.1465 24.1644 31.322 25 31.322C25.8062 31.322 26.6087 31.1567 27.3468 30.8323L36.4668 26.8258L25.8966 21.3925V21.3923C25.45 21.2013 25.1371 20.7603 25.1371 20.246C25.1371 19.5575 25.6984 18.9992 26.3906 18.9992C26.6304 18.9992 26.8544 19.0661 27.045 19.1824L39.4042 25.5354L45.0776 23.043Z" fill="#537173"/>
</svg>
