<svg width="48" height="48" viewBox="0 0 48 48" fill="none" xmlns="http://www.w3.org/2000/svg">
<path fill-rule="evenodd" clip-rule="evenodd" d="M20.4703 3.25969C21.7154 4.43038 21.4285 6.21734 20.8356 7.57887L20.8345 7.5812C19.936 9.63502 19.4419 11.8867 19.4603 14.2684L19.4603 14.2738C19.4969 23.1126 26.844 30.6532 35.8416 31.0212L35.8428 31.0213C37.1712 31.0766 38.441 30.9845 39.674 30.7638C40.4837 30.6163 41.2716 30.5915 41.9769 30.756C42.6959 30.9237 43.4101 31.3136 43.8527 32.0378C44.2934 32.759 44.3164 33.5691 44.1475 34.2799C43.9811 34.9801 43.6137 35.6715 43.1291 36.3281C38.8809 42.1404 31.8084 45.8208 23.9153 45.4786L23.9144 45.4785C12.713 44.9859 3.33949 36.0258 2.56408 24.9463C1.8556 15.1248 7.6846 6.57099 16.1574 2.99784C17.5171 2.42196 19.272 2.13293 20.4703 3.25969ZM18.3406 5.4907C18.1404 5.49623 17.8041 5.55816 17.3258 5.76096L17.3232 5.76209C9.95649 8.86875 4.94567 16.2741 5.55641 24.7319L5.55666 24.7354C6.22208 34.2547 14.3277 42.0536 24.0453 42.4814M18.5013 5.50299C18.5012 5.50307 18.4995 5.50262 18.4965 5.50142C18.4998 5.50232 18.5013 5.50292 18.5013 5.50299ZM18.3406 5.4907C18.3287 5.66657 18.2685 5.95956 18.0856 6.37975C17.0248 8.80489 16.439 11.4719 16.4603 14.2888C16.5052 24.7688 25.1575 33.5868 35.719 34.0187C37.2695 34.0832 38.7586 33.9755 40.2048 33.7165L40.2096 33.7156C40.6884 33.6282 41.0128 33.6322 41.208 33.6612C41.148 33.8534 41.0068 34.1521 40.7138 34.5487L40.7091 34.5551C37.0373 39.5806 30.9113 42.7788 24.0462 42.4814M41.3908 33.708C41.3907 33.708 41.3898 33.7075 41.3882 33.7066L41.3908 33.708ZM41.2454 33.48C41.2452 33.4773 41.2452 33.4759 41.2453 33.4759C41.2453 33.4758 41.2454 33.4772 41.2454 33.48Z" fill="#2B4A52"/>
</svg>
