<svg width="170" height="170" fill="none" xmlns="http://www.w3.org/2000/svg"><g clip-path="url(#clip0_6_16618)" fill="#2B4A52"><path d="M85 85a42.501 42.501 0 10-42.5-42.5A42.542 42.542 0 0085 85zm0-70.833a28.332 28.332 0 110 56.664 28.332 28.332 0 010-56.664zM85 99a63.819 63.819 0 00-63.75 63.75 7.084 7.084 0 0014.167 0 49.585 49.585 0 0184.644-35.061 49.587 49.587 0 0114.522 35.061 7.086 7.086 0 007.084 7.083 7.083 7.083 0 007.083-7.083A63.818 63.818 0 0085 99z"/></g><defs><clipPath id="clip0_6_16618"><path fill="#fff" d="M0 0h170v170H0z"/></clipPath></defs></svg>